<svg xmlns="http://www.w3.org/2000/svg" viewBox="0 0 24 24" fill="#25D366" aria-hidden="true">
  <path d="M20.52 3.48A11.85 11.85 0 0 0 12.02 0C5.4 0 .06 5.35 0 11.97c-.02 2.11.54 4.18 1.63 6.01L0 24l6.18-1.62a12 12 0 0 0 5.78 1.47h.01c6.62 0 11.97-5.35 12-11.96a11.9 11.9 0 0 0-3.45-8.41zM12 21.54a9.52 9.52 0 0 1-4.87-1.33l-.35-.2-3.67.96.98-3.58-.23-.37a9.53 9.53 0 0 1-1.46-5.05C2.42 6.67 6.69 2.4 12 2.4c2.53 0 4.9.99 6.69 2.78a9.38 9.38 0 0 1 2.79 6.68c-.02 5.3-4.29 9.58-9.48 9.58zm5.22-7.12c-.29-.14-1.71-.84-1.98-.93-.27-.1-.47-.14-.66.14-.19.29-.76.93-.93 1.12-.17.19-.34.21-.63.07-.29-.14-1.22-.45-2.32-1.43-.86-.77-1.44-1.72-1.61-2.01-.17-.29-.02-.45.12-.59.12-.12.29-.34.43-.51.14-.17.19-.29.29-.48.1-.19.05-.36-.02-.5-.07-.14-.66-1.6-.91-2.19-.24-.58-.49-.5-.66-.51h-.56c-.19 0-.5.07-.76.36-.26.29-1 1-1 2.44s1.03 2.83 1.17 3.02c.14.19 2.03 3.1 4.92 4.34.69.3 1.23.48 1.65.61.69.22 1.32.19 1.82.12.55-.08 1.71-.7 1.95-1.38.24-.67.24-1.26.17-1.38-.07-.12-.26-.19-.55-.33z"/>
</svg>
